<?xml version="1.0" encoding="UTF-8"?> <svg xmlns="http://www.w3.org/2000/svg" id="katman_2" data-name="katman 2" viewBox="0 0 103.66 109.39"><defs><style> .cls-1, .cls-2, .cls-3 { fill: none; } .cls-4 { fill: #1d1d1b; font-family: ArialMT, Arial; font-size: 5px; } .cls-2 { stroke-width: .15px; } .cls-2, .cls-3 { stroke: #1d1d1b; stroke-linecap: round; stroke-linejoin: round; } .cls-3 { stroke-width: .25px; } </style></defs><g id="katman_1" data-name="katman 1"><rect class="cls-1" width="103.66" height="109.39"></rect><path class="cls-2" d="M70.37,61.77h-22.7c-.28,0-.5-.22-.5-.5v-23.7c0-.28.22-.5.5-.5h22.7c.28,0,.5.22.5.5v23.7c0,.28-.22.5-.5.5ZM70.88,43.06h-23.7"></path><text class="cls-4" transform="translate(56.31 72.38)"><tspan x="0" y="0">95</tspan></text><text class="cls-4" transform="translate(36.26 52.13) rotate(-90)"><tspan x="0" y="0">99</tspan></text><text class="cls-4" transform="translate(41.96 55.14) rotate(-90)"><tspan x="0" y="0">75</tspan></text><path class="cls-3" d="M47.18,66.22v1.75h23.7v-1.75M38.81,61.77h-1.75v-24.69h1.75M44.51,61.77h-1.75v-18.71h1.75"></path></g></svg> 