<?xml version="1.0" encoding="UTF-8"?> <svg xmlns="http://www.w3.org/2000/svg" id="katman_2" data-name="katman 2" viewBox="0 0 103.66 109.39"><defs><style> .cls-1, .cls-2, .cls-3 { fill: none; } .cls-4 { fill: #1d1d1b; font-family: ArialMT, Arial; font-size: 5px; } .cls-2 { stroke-width: .15px; } .cls-2, .cls-3 { stroke: #1d1d1b; stroke-linecap: round; stroke-linejoin: round; } .cls-3 { stroke-width: .25px; } </style></defs><g id="katman_1" data-name="katman 1"><rect class="cls-1" width="103.66" height="109.39"></rect><path class="cls-2" d="M24.69,37.85h11.22v-8.73h-11.22v8.73ZM24.69,29.12h11.22v-1.25h-11.22v1.25ZM25.83,38.85h.66M25.83,38.85h.66M26.49,38.85s.05-.02.05-.04M25.66,37.85l.12.95M25.78,38.8s.02.04.05.04M26.66,37.85l-.12.95M34.78,38.85h-.66M34.78,38.85h-.66M34.07,38.8s.03.04.05.04M34.95,37.85l-.12.95M34.78,38.85s.05-.02.05-.04M33.95,37.85l.12.95M35.57,59.53h-11.22v22.2h11.22v-22.2ZM35.27,59.83h-10.63v21.6h10.63v-21.6ZM24.64,81.43h-.3M24.64,59.83v-.3M35.27,59.83h.3M35.27,81.43v.3M56.1,27.66h22.2M56.1,28.91h22.2M78.3,27.66v9.98M78.3,37.64h-22.2M56.1,37.64v-9.98M57.67,38.63h.66M57.67,38.63h.66M58.33,38.63s.05-.02.05-.04M57.5,37.64l.12.95M57.62,38.59s.02.04.05.04M58.5,37.64l-.12.95M76.73,38.63h-.66M76.73,38.63h-.66M76.02,38.59s.02.04.05.04M76.9,37.64l-.12.95M76.73,38.63s.05-.02.05-.04M75.9,37.64l.12.95M24.64,60.97l1.13-1.14M24.64,65.45l5.61-5.62M24.64,69.92l10.09-10.09M24.64,74.4l10.63-10.62M24.64,78.88l10.63-10.63M26.57,81.43l8.69-8.69M31.05,81.43l4.21-4.21"></path><text class="cls-4" transform="translate(27.53 48.18)"><tspan x="0" y="0">45</tspan></text><text class="cls-4" transform="translate(20.2 35.93) rotate(-90)"><tspan x="0" y="0">44</tspan></text><text class="cls-4" transform="translate(27.31 54.51)"><tspan x="0" y="0">45</tspan></text><text class="cls-4" transform="translate(18.99 73.33) rotate(-90)"><tspan x="0" y="0">89</tspan></text><text class="cls-4" transform="translate(64.42 48.27)"><tspan x="0" y="0">89</tspan></text><text class="cls-4" transform="translate(51.58 35.93) rotate(-90)"><tspan x="0" y="0">44</tspan></text><text class="cls-4" transform="translate(88.2 36.55) rotate(-90)"><tspan x="0" y="0">39</tspan></text><path class="cls-3" d="M56.1,41.97v1.75h22.2v-1.75M35.92,41.97v1.75h-11.22v-1.75M82.04,28.91h1.75v9.73h-1.75M54.07,38.64h-1.75v-10.98h1.75M22.69,38.85h-1.75v-10.98h1.75M21.54,59.53h-1.74v22.2h1.74M24.34,55.32v1.75M24.34,55.32h11.22v1.75"></path></g></svg> 