<?xml version="1.0" encoding="UTF-8"?> <svg xmlns="http://www.w3.org/2000/svg" id="katman_2" data-name="katman 2" viewBox="0 0 103.66 109.39"><defs><style> .cls-1, .cls-2, .cls-3 { fill: none; } .cls-4 { font-size: 5px; } .cls-4, .cls-5, .cls-6 { fill: #1d1d1b; font-family: ArialMT, Arial; } .cls-5 { font-size: 5px; } .cls-6 { font-size: 5px; } .cls-2 { stroke-width: .15px; } .cls-2, .cls-3 { stroke: #1d1d1b; stroke-linecap: round; stroke-linejoin: round; } .cls-3 { stroke-width: .25px; } </style></defs><g id="katman_1" data-name="katman 1"><rect class="cls-1" width="103.66" height="109.39"></rect><path class="cls-2" d="M28.23,56.13v8.6M63.17,31.05c0-.34-.28-.62-.62-.62M28.23,64.73c0,.35.28.62.62.62M63.17,56.24v-25.19M54.05,65.36c5.03,0,9.1-4.08,9.1-9.1M28.85,65.36h25.19M62.54,30.42h-9.28M28.23,56.13h-5.24M22.37,55.5c0,.34.28.62.62.62M53.14,25.21c0-.35-.29-.62-.64-.61M53.28,30.44l-.13-5.24M53.26,30.42c-12.24,3.65-21.71,13.38-25.03,25.71M52.51,24.6c-15.69,2.68-27.86,15.16-30.14,30.91"></path><text class="cls-4" transform="translate(41.53 77.95)"><tspan x="0" y="0">140</tspan></text><text class="cls-4" transform="translate(74.79 52.06) rotate(-90)"><tspan x="0" y="0">140</tspan></text><text class="cls-4" transform="translate(38.6 84.86)"><tspan x="0" y="0">163</tspan></text><text class="cls-4" transform="translate(81.35 49.15) rotate(-90)"><tspan x="0" y="0">163</tspan></text><text class="cls-6" transform="translate(39.23 54.96) rotate(-45)"><tspan x="0" y="0">196</tspan></text><text class="cls-5" transform="translate(49.08 45.16) rotate(44.28)"><tspan x="0" y="0">12</tspan></text><text class="cls-5" transform="translate(53.06 49.05) rotate(44.28)"><tspan x="0" y="0">9</tspan></text><path class="cls-3" d="M63.17,71.75v1.75H28.23v-1.75M63.17,78.62v1.75H22.37v-1.75M68.61,30.42h1.75v34.93h-1.75M75.16,24.6h1.75v40.76h-1.75M62.98,30.6l.87.87-34.57,34.57-.87-.87M62.28,59.99l-22.32-22.33"></path></g></svg> 