<svg width="17" height="21" viewBox="0 0 17 21" fill="none" xmlns="http://www.w3.org/2000/svg">
<path fill-rule="evenodd" clip-rule="evenodd" d="M8.02263 1.04508C8.16832 0.960968 8.33358 0.916687 8.5018 0.916687C8.67002 0.916687 8.83528 0.960968 8.98097 1.04508L10.8976 2.15195C11.1159 2.27994 11.2748 2.48908 11.3395 2.73374C11.4041 2.9784 11.3694 3.23871 11.2429 3.45787C11.1164 3.67703 10.9083 3.83724 10.6641 3.90355C10.4198 3.96985 10.1593 3.93687 9.9393 3.81179L9.46013 3.53483V4.75C9.46013 5.00416 9.35917 5.24792 9.17945 5.42764C8.99972 5.60736 8.75597 5.70833 8.5018 5.70833C8.24764 5.70833 8.00388 5.60736 7.82416 5.42764C7.64444 5.24792 7.54347 5.00416 7.54347 4.75V3.53483L7.0643 3.81179C6.84431 3.93687 6.58377 3.96985 6.33955 3.90355C6.09532 3.83724 5.88724 3.67703 5.76071 3.45787C5.63417 3.23871 5.59946 2.9784 5.66414 2.73374C5.72882 2.48908 5.88765 2.27994 6.10597 2.15195L8.02263 1.04508ZM3.77914 4.60145C3.90621 4.82156 3.94065 5.08314 3.87487 5.32864C3.80909 5.57414 3.64849 5.78345 3.42839 5.91054L2.94922 6.1875L4.00147 6.79508C4.11134 6.85755 4.20776 6.94113 4.2852 7.04101C4.36263 7.1409 4.41955 7.25511 4.45266 7.37708C4.48577 7.49905 4.49444 7.62637 4.47815 7.7517C4.46186 7.87703 4.42094 7.9979 4.35774 8.10735C4.29455 8.2168 4.21033 8.31267 4.10993 8.38945C4.00954 8.46622 3.89495 8.52237 3.77276 8.55467C3.65057 8.58698 3.5232 8.59479 3.39798 8.57767C3.27276 8.56055 3.15217 8.51883 3.04314 8.45491L1.99089 7.84733V8.40029C1.99089 8.65445 1.88992 8.89821 1.7102 9.07793C1.53047 9.25765 1.28672 9.35862 1.03255 9.35862C0.778386 9.35862 0.53463 9.25765 0.354908 9.07793C0.175186 8.89821 0.0742188 8.65445 0.0742188 8.40029V6.1875C0.0743911 6.01944 0.118754 5.85438 0.202856 5.70889C0.286959 5.56339 0.407845 5.44257 0.553385 5.35854L2.47005 4.25166C2.69016 4.12459 2.95174 4.09015 3.19723 4.15593C3.44273 4.2217 3.65205 4.38231 3.77914 4.60241V4.60145ZM13.2245 4.60145C13.3516 4.38135 13.5609 4.22075 13.8064 4.15497C14.0519 4.08919 14.3134 4.12363 14.5336 4.2507L16.4502 5.35758C16.5959 5.44169 16.7169 5.56266 16.801 5.70834C16.8851 5.85402 16.9294 6.01928 16.9294 6.1875V8.40125C16.9294 8.65541 16.8284 8.89917 16.6487 9.07889C16.469 9.25861 16.2252 9.35958 15.9711 9.35958C15.7169 9.35958 15.4731 9.25861 15.2934 9.07889C15.1137 8.89917 15.0127 8.65541 15.0127 8.40125V7.84733L13.9605 8.45491C13.7405 8.57999 13.4799 8.61298 13.2357 8.54667C12.9915 8.48037 12.7834 8.32015 12.6569 8.10099C12.5303 7.88184 12.4956 7.62152 12.5603 7.37686C12.625 7.13221 12.7838 6.92306 13.0021 6.79508L14.0544 6.1875L13.5752 5.91054C13.3551 5.78345 13.1945 5.57414 13.1287 5.32864C13.063 5.08314 13.0974 4.82156 13.2245 4.60145ZM5.18214 8.58333C5.30922 8.36323 5.51854 8.20262 5.76404 8.13684C6.00953 8.07106 6.27111 8.1055 6.49122 8.23258L8.5018 9.39312L10.5124 8.23258C10.7324 8.1075 10.9929 8.07451 11.2371 8.14082C11.4814 8.20712 11.6894 8.36734 11.816 8.5865C11.9425 8.80566 11.9772 9.06597 11.9125 9.31063C11.8479 9.55528 11.689 9.76443 11.4707 9.89241L9.46013 11.053V13.375C9.46013 13.6292 9.35917 13.8729 9.17945 14.0526C8.99972 14.2324 8.75597 14.3333 8.5018 14.3333C8.24764 14.3333 8.00388 14.2324 7.82416 14.0526C7.64444 13.8729 7.54347 13.6292 7.54347 13.375V11.053L5.53289 9.89241C5.31278 9.76533 5.15218 9.55601 5.0864 9.31051C5.02062 9.06501 5.05506 8.80344 5.18214 8.58333ZM1.03255 11.6404C1.28672 11.6404 1.53047 11.7414 1.7102 11.9211C1.88992 12.1008 1.99089 12.3446 1.99089 12.5987V13.1527L3.04314 12.5451C3.26313 12.42 3.52366 12.387 3.76789 12.4533C4.01211 12.5196 4.2202 12.6798 4.34673 12.899C4.47327 13.1182 4.50798 13.3785 4.4433 13.6231C4.37861 13.8678 4.21978 14.0769 4.00147 14.2049L2.94922 14.8125L3.42839 15.0895C3.53825 15.1519 3.63468 15.2355 3.71212 15.3354C3.78955 15.4353 3.84646 15.5495 3.87958 15.6715C3.91269 15.7934 3.92135 15.9207 3.90506 16.0461C3.88877 16.1714 3.84785 16.2923 3.78466 16.4017C3.72146 16.5112 3.63725 16.607 3.53685 16.6838C3.43645 16.7606 3.32186 16.8167 3.19968 16.849C3.07749 16.8814 2.95012 16.8892 2.8249 16.872C2.69968 16.8549 2.57908 16.8132 2.47005 16.7493L0.553385 15.6424C0.407704 15.5583 0.286728 15.4373 0.202617 15.2916C0.118506 15.146 0.074223 14.9807 0.0742188 14.8125V12.5987C0.0742188 12.3446 0.175186 12.1008 0.354908 11.9211C0.53463 11.7414 0.778386 11.6404 1.03255 11.6404ZM15.9711 11.6404C16.2252 11.6404 16.469 11.7414 16.6487 11.9211C16.8284 12.1008 16.9294 12.3446 16.9294 12.5987V14.8125C16.9294 14.9807 16.8851 15.146 16.801 15.2916C16.7169 15.4373 16.5959 15.5583 16.4502 15.6424L14.5336 16.7493C14.4245 16.8132 14.3039 16.8549 14.1787 16.872C14.0535 16.8892 13.9261 16.8814 13.8039 16.849C13.6817 16.8167 13.5672 16.7606 13.4668 16.6838C13.3664 16.607 13.2821 16.5112 13.2189 16.4017C13.1558 16.2923 13.1148 16.1714 13.0985 16.0461C13.0822 15.9207 13.0909 15.7934 13.124 15.6715C13.1571 15.5495 13.2141 15.4353 13.2915 15.3354C13.3689 15.2355 13.4654 15.1519 13.5752 15.0895L14.0544 14.8125L13.0021 14.2049C12.8923 14.1424 12.7958 14.0589 12.7184 13.959C12.641 13.8591 12.5841 13.7449 12.5509 13.6229C12.5178 13.5009 12.5092 13.3736 12.5255 13.2483C12.5417 13.123 12.5827 13.0021 12.6459 12.8926C12.7091 12.7832 12.7933 12.6873 12.8937 12.6105C12.9941 12.5338 13.1087 12.4776 13.2308 12.4453C13.353 12.413 13.4804 12.4052 13.6056 12.4223C13.7308 12.4394 13.8514 12.4812 13.9605 12.5451L15.0127 13.1527V12.5997C15.0127 12.3455 15.1137 12.1018 15.2934 11.9221C15.4731 11.7423 15.7169 11.6414 15.9711 11.6414V11.6404ZM8.5018 15.2917C8.75597 15.2917 8.99972 15.3926 9.17945 15.5724C9.35917 15.7521 9.46013 15.9958 9.46013 16.25V17.4652L9.9393 17.1882C10.0483 17.1243 10.1689 17.0826 10.2941 17.0654C10.4194 17.0483 10.5467 17.0561 10.6689 17.0884C10.7911 17.1207 10.9057 17.1769 11.0061 17.2537C11.1065 17.3304 11.1907 17.4263 11.2539 17.5358C11.3171 17.6452 11.358 17.7661 11.3743 17.8914C11.3906 18.0168 11.3819 18.1441 11.3488 18.266C11.3157 18.388 11.2588 18.5022 11.1814 18.6021C11.1039 18.702 11.0075 18.7856 10.8976 18.848L8.98097 19.9549C8.83528 20.039 8.67002 20.0833 8.5018 20.0833C8.33358 20.0833 8.16832 20.039 8.02263 19.9549L6.10597 18.848C5.9961 18.7856 5.89967 18.702 5.82224 18.6021C5.7448 18.5022 5.68789 18.388 5.65478 18.266C5.62166 18.1441 5.613 18.0168 5.62929 17.8914C5.64558 17.7661 5.6865 17.6452 5.7497 17.5358C5.81289 17.4263 5.89711 17.3304 5.9975 17.2537C6.0979 17.1769 6.21249 17.1207 6.33468 17.0884C6.45687 17.0561 6.58424 17.0483 6.70946 17.0654C6.83468 17.0826 6.95527 17.1243 7.0643 17.1882L7.54347 17.4652V16.25C7.54347 15.9958 7.64444 15.7521 7.82416 15.5724C8.00388 15.3926 8.24764 15.2917 8.5018 15.2917Z" fill="black"/>
</svg>
