<svg width="17" height="19" viewBox="0 0 17 19" fill="none" xmlns="http://www.w3.org/2000/svg">
<path d="M8.50224 10.7486C8.82015 10.7486 9.13026 10.6451 9.51196 10.4225L15.7385 6.81253C16.3747 6.43864 16.6292 6.14414 16.6292 5.7068C16.6292 5.2776 16.3747 4.9831 15.7385 4.60955L9.51196 0.99955C9.13026 0.776639 8.82015 0.673157 8.50224 0.673157C8.17619 0.673157 7.87388 0.776639 7.49219 0.99921L1.26596 4.60921C0.629795 4.9831 0.37533 5.2776 0.37533 5.7068C0.37533 6.14448 0.629795 6.43864 1.26596 6.81219L7.49219 10.4222C7.87388 10.6451 8.17619 10.7486 8.50224 10.7486ZM8.50224 9.36498C8.39062 9.36498 8.27933 9.32494 8.1521 9.25335L2.09279 5.78653C2.0609 5.77059 2.03715 5.74683 2.03715 5.7068C2.03715 5.67525 2.0609 5.65116 2.09279 5.63555L8.15244 2.16805C8.27933 2.0968 8.39062 2.0571 8.5019 2.0571C8.61319 2.0571 8.72481 2.0968 8.85205 2.16839L14.9035 5.63521C14.9432 5.65116 14.9673 5.67525 14.9673 5.7068C14.9673 5.7465 14.9432 5.77059 14.9035 5.78653L8.85205 9.25335C8.72481 9.32494 8.61353 9.36498 8.50224 9.36498ZM8.50224 14.6687C8.78826 14.6687 9.03492 14.5337 9.36878 14.3348L16.2 10.3031C16.5019 10.1202 16.6295 9.85796 16.6295 9.6113C16.6295 9.28559 16.391 9.01484 16.1762 8.91169L8.80421 13.166C8.69292 13.2294 8.58944 13.2773 8.50224 13.2773C8.41471 13.2773 8.31122 13.2298 8.19994 13.166L0.828277 8.91135C0.605705 9.01484 0.367188 9.28525 0.367188 9.6113C0.367188 9.85796 0.510366 10.1284 0.804866 10.3034L7.63503 14.3348C7.96888 14.5337 8.20774 14.6687 8.50224 14.6687ZM8.5019 18.3269C8.78792 18.3269 9.03458 18.1915 9.36844 17.9927L16.2 13.9609C16.4941 13.794 16.6295 13.5158 16.6295 13.2691C16.6295 12.9434 16.391 12.6808 16.1762 12.5695L8.80421 16.8316C8.69292 16.8954 8.58944 16.9429 8.50224 16.9429C8.41471 16.9429 8.31122 16.8954 8.19994 16.8316L0.828277 12.5695C0.605705 12.6808 0.367188 12.9431 0.367188 13.2691C0.367188 13.5158 0.510366 13.794 0.804866 13.9613L7.63503 17.9923C7.96888 18.1912 8.2074 18.3269 8.5019 18.3269Z" fill="black"/>
</svg>
