<svg width="150" height="150" viewBox="0 0 150 150" fill="none" xmlns="http://www.w3.org/2000/svg">
<circle cx="75" cy="75" r="75" fill="#26D367"/>
<path d="M97.325 52.5482C94.4213 49.6162 90.9632 47.2914 87.1521 45.7093C83.341 44.1272 79.2531 43.3195 75.1266 43.3332C57.8366 43.3332 43.745 57.4248 43.745 74.7148C43.745 80.2565 45.2016 85.6399 47.925 90.3899L43.4916 106.667L60.1166 102.297C64.7083 104.798 69.87 106.128 75.1266 106.128C92.4166 106.128 106.508 92.0365 106.508 74.7465C106.508 66.3548 103.247 58.4698 97.325 52.5482ZM75.1266 100.808C70.44 100.808 65.8483 99.5415 61.8266 97.1665L60.8766 96.5965L50.9966 99.1932L53.625 89.5665L52.9916 88.5849C50.3872 84.4272 49.0046 79.6209 49.0016 74.7148C49.0016 60.3382 60.7183 48.6215 75.095 48.6215C82.0616 48.6215 88.6166 51.3448 93.525 56.2848C95.9558 58.7037 97.882 61.5812 99.1921 64.7504C100.502 67.9195 101.17 71.3173 101.157 74.7465C101.22 89.1232 89.5033 100.808 75.1266 100.808ZM89.44 81.3015C88.6483 80.9215 84.785 79.0215 84.0883 78.7365C83.36 78.4832 82.8533 78.3565 82.315 79.1165C81.7766 79.9082 80.2883 81.6815 79.845 82.1882C79.4016 82.7265 78.9266 82.7898 78.135 82.3782C77.3433 81.9982 74.81 81.1432 71.8333 78.4832C69.49 76.3932 67.9383 73.8282 67.4633 73.0365C67.02 72.2448 67.4 71.8332 67.8116 71.4215C68.16 71.0732 68.6033 70.5032 68.9833 70.0598C69.3633 69.6165 69.5216 69.2682 69.775 68.7615C70.0283 68.2232 69.9016 67.7798 69.7116 67.3998C69.5216 67.0198 67.9383 63.1565 67.305 61.5732C66.6716 60.0532 66.0066 60.2432 65.5316 60.2115H64.0116C63.4733 60.2115 62.65 60.4015 61.9216 61.1932C61.225 61.9848 59.1983 63.8848 59.1983 67.7482C59.1983 71.6115 62.0166 75.3482 62.3966 75.8549C62.7766 76.3932 67.9383 84.3098 75.7916 87.6982C77.66 88.5215 79.1166 88.9965 80.2566 89.3448C82.125 89.9465 83.835 89.8515 85.1966 89.6615C86.7166 89.4398 89.8516 87.7615 90.485 85.9248C91.15 84.0882 91.15 82.5365 90.9283 82.1882C90.7066 81.8398 90.2316 81.6815 89.44 81.3015Z" fill="white"/>
</svg>
