<svg width="516" height="852" viewBox="0 0 516 852" fill="none" xmlns="http://www.w3.org/2000/svg">
<path d="M217.705 22.5505C195.524 34.7653 159.185 53.0875 136.532 62.4835C95.0017 80.3359 88.3946 87.8527 105.384 98.1882C111.52 102.416 128.037 95.8392 185.614 67.1815L258.292 31.4767L323.891 63.8929C403.177 102.886 411.2 105.235 419.695 92.0808C425.358 83.1547 424.414 81.7453 408.368 75.1681C376.748 62.0137 314.925 31.9465 286.136 15.9733L257.82 0.000145804L217.705 22.5505Z" fill="#D3D3D3" fill-opacity="0.4"/>
<path d="M0.613281 150.806C0.613281 151.746 5.8046 160.672 12.4117 170.068L24.6821 187.921L23.2663 415.773C21.8505 644.096 21.8505 644.096 10.9959 659.129C5.33266 667.116 0.613281 675.103 0.613281 676.512C0.613281 680.27 92.6412 680.27 95.9447 676.512C97.8325 675.103 93.585 666.176 87.4498 657.25C76.5953 641.277 76.1233 636.579 76.1233 572.686V504.565L92.6412 519.129C120.014 543.089 167.207 563.76 272.449 598.525C379.579 633.76 410.727 647.854 437.156 670.405C459.809 690.606 467.832 707.049 467.832 734.767C467.832 783.156 420.638 818.391 337.577 832.955C228.559 851.747 159.656 821.68 117.654 737.116L103.024 707.519L75.1795 727.25C60.0775 738.056 46.3913 748.391 45.4474 750.271C40.728 757.318 101.136 806.177 133.7 822.62C184.669 847.049 226.672 854.566 297.934 851.277C411.199 846.11 480.574 817.922 505.115 767.183C519.273 738.526 518.801 690.606 504.643 663.827C493.788 644.096 493.788 642.217 492.373 418.592L490.957 193.088L502.283 170.538L513.61 148.457H467.36C441.403 148.457 420.638 149.867 420.638 151.746C420.638 153.155 424.413 158.793 429.133 163.961C436.212 171.478 437.156 185.102 438.572 262.149L439.987 350.941L421.582 341.545C321.059 290.337 161.544 295.035 97.3605 351.411L75.6514 370.673L77.0672 273.894C78.483 181.343 78.955 177.115 89.3376 166.31C95.0009 159.733 99.7202 153.625 99.7202 151.746C99.7202 149.867 77.5392 148.457 50.1668 148.457C22.7944 148.457 0.613281 149.397 0.613281 150.806ZM340.409 339.196C377.692 356.579 399.401 374.901 422.526 408.256L439.987 433.156L440.931 516.31C441.403 561.881 441.403 599.465 440.459 599.465C439.987 599.465 426.773 592.888 411.199 585.371C395.625 577.384 340.88 557.183 289.911 540.27C238.47 523.357 181.365 502.686 162.96 493.76C84.1463 456.176 69.5162 399.8 127.093 356.579C160.6 331.209 197.411 322.283 257.819 323.693C304.541 324.632 312.564 326.042 340.409 339.196Z" fill="#D3D3D3" fill-opacity="0.4"/>
</svg>
