<svg width="19" height="31" viewBox="0 0 19 31" fill="none" xmlns="http://www.w3.org/2000/svg">
<path d="M7.88236 0.820466C7.07699 1.2649 5.75755 1.93154 4.93504 2.27341C3.42711 2.92297 3.18721 3.19646 3.80409 3.57252C4.02686 3.72636 4.6266 3.48705 6.71714 2.44435L9.35602 1.14524L11.7379 2.32469C14.6166 3.74346 14.908 3.82892 15.2164 3.35031C15.422 3.02553 15.3878 2.97425 14.8051 2.73494C13.6571 2.25632 11.4123 1.16234 10.367 0.581157L9.33889 -2.21729e-05L7.88236 0.820466Z" fill="white"/>
<path d="M0 5.487C0 5.52119 0.188491 5.84596 0.42839 6.18783L0.873915 6.83739L0.822508 15.1277C0.771102 23.4352 0.771102 23.4352 0.376983 23.9822C0.171356 24.2728 0 24.5634 0 24.6146C0 24.7514 3.34144 24.7514 3.46139 24.6146C3.52993 24.5634 3.37571 24.2386 3.15295 23.9138C2.75883 23.3326 2.74169 23.1617 2.74169 20.837V18.3584L3.34144 18.8883C4.3353 19.7601 6.04886 20.5122 9.8701 21.7771C13.7599 23.0591 14.8908 23.5719 15.8504 24.3924C16.6729 25.1274 16.9642 25.7257 16.9642 26.7342C16.9642 28.4949 15.2507 29.7769 12.2348 30.3068C8.27649 30.9905 5.77469 29.8965 4.24963 26.8197L3.71842 25.7428L2.70742 26.4607C2.15908 26.8539 1.66215 27.2299 1.62788 27.2983C1.45653 27.5547 3.64988 29.3324 4.83224 29.9307C6.68288 30.8196 8.20795 31.0931 10.7954 30.9734C14.908 30.7854 17.4269 29.7598 18.3179 27.9137C18.832 26.871 18.8149 25.1274 18.3008 24.1531C17.9067 23.4352 17.9067 23.3668 17.8553 15.2303L17.8039 7.02542L18.2151 6.20493L18.6264 5.40153H16.9471C16.0046 5.40153 15.2507 5.45281 15.2507 5.52119C15.2507 5.57247 15.3878 5.77759 15.5591 5.96562C15.8161 6.23912 15.8504 6.73483 15.9018 9.53816L15.9532 12.7688L15.2849 12.427C11.6351 10.5638 5.84324 10.7347 3.5128 12.7859L2.72456 13.4868L2.77597 9.9655C2.82737 6.59808 2.84451 6.44424 3.22149 6.05109C3.42712 5.81178 3.59847 5.58956 3.59847 5.52119C3.59847 5.45281 2.7931 5.40153 1.79924 5.40153C0.805373 5.40153 0 5.43572 0 5.487ZM12.3376 12.3415C13.6913 12.974 14.4796 13.6406 15.3192 14.8542L15.9532 15.7602L15.9875 18.7858C16.0046 20.4438 16.0046 21.8113 15.9704 21.8113C15.9532 21.8113 15.4734 21.572 14.908 21.2985C14.3425 21.0079 12.3548 20.2729 10.5041 19.6575C8.63634 19.0422 6.56293 18.29 5.89464 17.9653C3.033 16.5978 2.5018 14.5466 4.59234 12.974C5.80896 12.0509 7.14554 11.7261 9.3389 11.7774C11.0353 11.8116 11.3266 11.8629 12.3376 12.3415Z" fill="white"/>
</svg>
