<svg width="32" height="32" viewBox="0 0 32 32" fill="none" xmlns="http://www.w3.org/2000/svg">
<path d="M6.6525 6.487C6.6525 6.52118 6.84099 6.84596 7.08089 7.18783L7.52641 7.83738L7.475 16.1277C7.4236 24.4352 7.4236 24.4352 7.02948 24.9822C6.82385 25.2728 6.6525 25.5634 6.6525 25.6146C6.6525 25.7514 9.99394 25.7514 10.1139 25.6146C10.1824 25.5634 10.0282 25.2386 9.80544 24.9138C9.41133 24.3326 9.39419 24.1617 9.39419 21.837V19.3584L9.99394 19.8883C10.9878 20.7601 12.7014 21.5122 16.5226 22.7771C20.4124 24.0591 21.5433 24.5719 22.5029 25.3924C23.3254 26.1274 23.6167 26.7257 23.6167 27.7342C23.6167 29.4949 21.9032 30.7769 18.8873 31.3068C14.929 31.9905 12.4272 30.8965 10.9021 27.8197L10.3709 26.7428L9.35992 27.4607C8.81158 27.8539 8.31465 28.2299 8.28038 28.2983C8.10902 28.5547 10.3024 30.3324 11.4847 30.9307C13.3354 31.8196 14.8604 32.0931 17.4479 31.9734C21.5605 31.7854 24.0794 30.7598 24.9704 28.9137C25.4845 27.871 25.4674 26.1274 24.9533 25.1531C24.5592 24.4352 24.5592 24.3668 24.5078 16.2303L24.4564 8.02541L24.8676 7.20492L25.2789 6.40153H23.5996C22.6571 6.40153 21.9032 6.45281 21.9032 6.52118C21.9032 6.57246 22.0403 6.77759 22.2116 6.96562C22.4686 7.23911 22.5029 7.73482 22.5543 10.5382L22.6057 13.7688L21.9374 13.427C18.2876 11.5638 12.4957 11.7347 10.1653 13.7859L9.37706 14.4868L9.42846 10.9655C9.47987 7.59807 9.497 7.44423 9.87399 7.05108C10.0796 6.81177 10.251 6.58956 10.251 6.52118C10.251 6.45281 9.4456 6.40153 8.45173 6.40153C7.45787 6.40153 6.6525 6.43572 6.6525 6.487ZM18.9901 13.3415C20.3438 13.974 21.1321 14.6406 21.9717 15.8542L22.6057 16.7602L22.64 19.7857C22.6571 21.4438 22.6571 22.8113 22.6229 22.8113C22.6057 22.8113 22.1259 22.572 21.5605 22.2985C20.995 22.0079 19.0073 21.2729 17.1566 20.6575C15.2888 20.0421 13.2154 19.29 12.5471 18.9653C9.6855 17.5978 9.15429 15.5466 11.2448 13.974C12.4615 13.0509 13.798 12.7261 15.9914 12.7774C17.6878 12.8116 17.9791 12.8629 18.9901 13.3415Z" fill="black"/>
<path d="M14.4729 1.607C13.6675 2.05143 12.3481 2.71808 11.5256 3.05995C10.0176 3.7095 9.77773 3.983 10.3946 4.35906C10.6174 4.5129 11.2171 4.27359 13.3077 3.23089L15.9465 1.93178L18.3284 3.11123C21.2072 4.52999 21.4985 4.61546 21.8069 4.13684C22.0125 3.81207 21.9783 3.76079 21.3957 3.52148C20.2476 3.04286 18.0028 1.94887 16.9575 1.36769L15.9294 0.786515L14.4729 1.607Z" fill="black"/>
</svg>
