<svg width="23" height="23" viewBox="0 0 23 23" fill="none" xmlns="http://www.w3.org/2000/svg">
<g clip-path="url(#clip0_595_367)">
<path d="M14.7694 13.0579C14.869 12.9917 14.9834 12.9513 15.1025 12.9405C15.2216 12.9296 15.3415 12.9487 15.4513 12.9959L19.6884 14.8943C19.8311 14.9553 19.9503 15.061 20.0281 15.1954C20.1058 15.3298 20.1379 15.4858 20.1196 15.64C19.98 16.6831 19.4663 17.6401 18.6741 18.3328C17.8818 19.0256 16.8649 19.407 15.8125 19.4062C12.5719 19.4062 9.464 18.1189 7.17254 15.8275C4.88108 13.536 3.59375 10.4281 3.59375 7.1875C3.59295 6.13507 3.9744 5.11817 4.66717 4.32591C5.35994 3.53365 6.31687 3.01997 7.36 2.88039C7.5142 2.86207 7.67019 2.89418 7.80462 2.97192C7.93904 3.04966 8.04467 3.16885 8.1057 3.31164L10.0041 7.55226C10.0507 7.66118 10.0697 7.77994 10.0594 7.89797C10.049 8.016 10.0097 8.12964 9.94481 8.22878L8.02484 10.5117C7.95674 10.6145 7.91647 10.7332 7.90796 10.8561C7.89946 10.9791 7.92302 11.1022 7.97633 11.2134C8.71934 12.7344 10.2916 14.2878 11.8171 15.0237C11.9289 15.0767 12.0526 15.0998 12.1759 15.0905C12.2993 15.0812 12.4181 15.0399 12.5206 14.9707L14.7694 13.0579Z" stroke="white" stroke-width="2" stroke-linecap="round" stroke-linejoin="round"/>
</g>
<defs>
<clipPath id="clip0_595_367">
<rect width="23" height="23" fill="white"/>
</clipPath>
</defs>
</svg>
