<svg width="21" height="18" viewBox="0 0 21 18" fill="none" xmlns="http://www.w3.org/2000/svg">
<path d="M2.16704 7.04497L4.51121 9.39664L9.78788 4.10497L7.44288 1.75247L2.16621 7.04414L2.16704 7.04497ZM5.86788 13.8183L7.62621 12.0541C7.70311 11.9768 7.79452 11.9155 7.8952 11.8736C7.99588 11.8318 8.10384 11.8102 8.21288 11.8102C8.32191 11.8102 8.42987 11.8318 8.53055 11.8736C8.63123 11.9155 8.72265 11.9768 8.79954 12.0541C8.95501 12.2103 9.04229 12.4217 9.04229 12.6421C9.04229 12.8624 8.95501 13.0738 8.79954 13.23L7.04121 14.9941C7.19667 15.1503 7.28395 15.3617 7.28395 15.5821C7.28395 15.8024 7.19667 16.0138 7.04121 16.17L5.86704 17.3458C5.79016 17.423 5.6988 17.4842 5.5982 17.526C5.49759 17.5678 5.38973 17.5893 5.28079 17.5893C5.17186 17.5893 5.064 17.5678 4.96339 17.526C4.86279 17.4842 4.77143 17.423 4.69454 17.3458L3.52204 16.1708C3.36633 16.0146 3.27889 15.803 3.27889 15.5825C3.27889 15.3619 3.36633 15.1503 3.52204 14.9941L4.69454 13.8183C4.77143 13.7411 4.86279 13.6799 4.96339 13.6381C5.064 13.5963 5.17186 13.5748 5.28079 13.5748C5.38973 13.5748 5.49759 13.5963 5.5982 13.6381C5.6988 13.6799 5.791 13.7411 5.86788 13.8183ZM13.4895 8.52664L18.7654 3.23497L17.5929 2.05831L12.317 7.34998C11.6695 6.69998 11.557 5.76081 12.0654 5.24997L16.672 0.629975C17.1804 0.119975 18.1179 0.232475 18.7654 0.882475L19.9379 2.05747C20.5862 2.70747 20.6987 3.64831 20.1895 4.15747L15.5829 8.77831C15.0745 9.28831 14.137 9.17581 13.4895 8.52581V8.52664ZM12.7195 11.7483L8.61538 7.63331L8.02871 8.22164L12.1329 12.3375L12.7195 11.7483ZM13.892 12.925L13.3054 13.5125L14.7712 14.9825C14.9329 15.145 15.1962 15.145 15.357 14.9825C15.4346 14.9044 15.4782 14.7988 15.4782 14.6887C15.4782 14.5786 15.4346 14.473 15.357 14.395L13.892 12.925ZM2.21704 4.64164C2.10604 4.40885 2.06975 4.14742 2.11317 3.8932C2.15658 3.63897 2.27757 3.4044 2.45954 3.22164L3.63204 2.04664C3.81362 1.86421 4.04741 1.74273 4.30106 1.69898C4.55471 1.65524 4.81568 1.6914 5.04788 1.80247L6.27038 0.576641C6.42414 0.422289 6.60687 0.299815 6.80807 0.216247C7.00928 0.132679 7.22501 0.0896606 7.44288 0.0896606C7.66075 0.0896606 7.87648 0.132679 8.07768 0.216247C8.27889 0.299815 8.46162 0.422289 8.61538 0.576641L10.9604 2.92914C11.2713 3.24148 11.4459 3.66426 11.4459 4.10497C11.4459 4.54569 11.2713 4.96847 10.9604 5.28081L9.78788 6.45664L16.5295 13.2183C16.9183 13.6088 17.1366 14.1373 17.1366 14.6883C17.1366 15.2393 16.9183 15.7679 16.5295 16.1583C16.3375 16.3514 16.1092 16.5047 15.8577 16.6093C15.6062 16.7139 15.3365 16.7677 15.0641 16.7677C14.7918 16.7677 14.5221 16.7139 14.2706 16.6093C14.0191 16.5047 13.7908 16.3514 13.5987 16.1583L6.85704 9.39664L5.68371 10.5725C5.03621 11.2225 3.98621 11.2225 3.33871 10.5725L0.993711 8.22081C0.682531 7.90843 0.507812 7.48548 0.507812 7.04456C0.507812 6.60364 0.682531 6.18068 0.993711 5.86831L2.21621 4.64331L2.21704 4.64164Z" fill="black"/>
</svg>
