<svg width="17" height="16" viewBox="0 0 17 16" fill="none" xmlns="http://www.w3.org/2000/svg">
<path d="M16.4993 7.35L12.666 4.26667V2.16667C12.6864 1.74578 12.5391 1.33398 12.2563 1.02156C11.9736 0.709127 11.5785 0.521567 11.1576 0.5H1.65764C1.23978 0.5258 0.848914 0.715194 0.56971 1.02715C0.290507 1.33911 0.145455 1.74851 0.165978 2.16667V10.5C0.158244 10.8309 0.249223 11.1567 0.427319 11.4357C0.605415 11.7147 0.862561 11.9344 1.16598 12.0667C1.01251 12.4421 0.952693 12.8493 0.9917 13.253C1.03071 13.6567 1.16736 14.0449 1.38987 14.384C1.61238 14.7232 1.91407 15.0031 2.26889 15.1996C2.62372 15.3961 3.02104 15.5033 3.42655 15.512C3.83207 15.5207 4.23361 15.4306 4.59653 15.2495C4.95945 15.0683 5.27285 14.8016 5.50969 14.4723C5.74652 14.143 5.89968 13.7611 5.95594 13.3594C6.01221 12.9577 5.96989 12.5484 5.83264 12.1667H11.1326C10.9956 12.5443 10.9516 12.9494 11.0043 13.3476C11.057 13.7458 11.2049 14.1255 11.4354 14.4545C11.666 14.7834 11.9724 15.052 12.3288 15.2374C12.6851 15.4228 13.0809 15.5196 13.4826 15.5196C13.8844 15.5196 14.2802 15.4228 14.6365 15.2374C14.9929 15.052 15.2993 14.7834 15.5299 14.4545C15.7604 14.1255 15.9083 13.7458 15.961 13.3476C16.0137 12.9494 15.9697 12.5443 15.8326 12.1667H15.9993C16.2203 12.1667 16.4323 12.0789 16.5886 11.9226C16.7448 11.7663 16.8326 11.5543 16.8326 11.3333V8C16.8301 7.87346 16.7988 7.74915 16.741 7.63653C16.6832 7.5239 16.6006 7.42592 16.4993 7.35ZM15.166 8.4V10.5H12.666V6.4L15.166 8.4ZM4.33264 13C4.33264 13.1648 4.28377 13.3259 4.1922 13.463C4.10063 13.6 3.97049 13.7068 3.81821 13.7699C3.66594 13.833 3.49839 13.8495 3.33674 13.8173C3.17509 13.7852 3.0266 13.7058 2.91006 13.5893C2.79351 13.4727 2.71414 13.3242 2.68199 13.1626C2.64984 13.0009 2.66634 12.8334 2.72941 12.6811C2.79248 12.5288 2.8993 12.3987 3.03634 12.3071C3.17338 12.2155 3.33449 12.1667 3.49931 12.1667C3.72032 12.1667 3.93229 12.2545 4.08857 12.4107C4.24485 12.567 4.33264 12.779 4.33264 13ZM8.49931 10.5H1.83264V2.16667H10.9993V10.5H8.49931ZM14.3326 13C14.3326 13.1648 14.2838 13.3259 14.1922 13.463C14.1006 13.6 13.9705 13.7068 13.8182 13.7699C13.6659 13.833 13.4984 13.8495 13.3367 13.8173C13.1751 13.7852 13.0266 13.7058 12.9101 13.5893C12.7935 13.4727 12.7141 13.3242 12.682 13.1626C12.6498 13.0009 12.6663 12.8334 12.7294 12.6811C12.7925 12.5288 12.8993 12.3987 13.0363 12.3071C13.1734 12.2155 13.3345 12.1667 13.4993 12.1667C13.7203 12.1667 13.9323 12.2545 14.0886 12.4107C14.2448 12.567 14.3326 12.779 14.3326 13Z" fill="black"/>
</svg>
