<?xml version="1.0" encoding="UTF-8"?> <svg xmlns="http://www.w3.org/2000/svg" id="katman_2" data-name="katman 2" viewBox="0 0 103.66 109.39"><defs><style> .cls-1, .cls-2, .cls-3 { fill: none; } .cls-4 { fill: #1d1d1b; font-family: ArialMT, Arial; font-size: 5px; } .cls-2 { stroke-width: .15px; } .cls-2, .cls-3 { stroke: #1d1d1b; stroke-linecap: round; stroke-linejoin: round; } .cls-3 { stroke-width: .25px; } </style></defs><g id="katman_1" data-name="katman 1"><rect class="cls-1" width="103.66" height="109.39"></rect><path class="cls-2" d="M38.62,58.09c.43,0,.79-.35.79-.79M37.57,58.09h1.05M39.4,57.3v-22.74M36.78,57.3v-21.72M36.78,57.3c0,.43.35.79.79.79M39.4,34.56h23.59M39.64,31.94h23.12M63.78,32.96c0-.56-.46-1.02-1.02-1.02M39.64,31.94c-.56,0-1.02.46-1.02,1.02M39.4,57.82v-.52M37.8,34.56c-.56,0-1.02.46-1.02,1.02M39.4,35.34c0-.43-.35-.79-.79-.79M38.62,33.77c0,.43.35.79.79.79M38.62,34.56h-.81M38.62,33.77v-.81M62.99,34.56c.43,0,.79-.35.79-.79M63.78,33.77v-.81M62.99,57.3c0,.43.35.79.79.79M64.83,58.09h-1.05M65.62,57.3v-21.72M64.83,58.09c.43,0,.79-.35.79-.79M65.62,35.58c0-.56-.46-1.02-1.02-1.02M63.78,34.56c-.43,0-.79.35-.79.79M63.78,34.56h.81M62.99,57.3v-22.74M62.73,58.09h-23.07M39.4,57.82c0,.14.12.26.26.26M62.99,57.3v.52M62.73,58.09c.14,0,.26-.12.26-.26M40.59,38.76c3.42,1.2,6.99,1.88,10.61,2.03M39.6,36.74c-.21.82.21,1.68.99,2.02M40.42,35.04c-.51.42-.81,1.04-.82,1.7M41.94,34.66c-.53.01-1.05.14-1.53.38M43.93,34.7c-.66-.02-1.32-.03-1.99-.04M43.93,34.7c2.05.03,4.09.02,6.14-.03M58.69,34.73c-2.87-.08-5.75-.1-8.62-.07M62.89,36.74c-.1-.59-.42-1.13-.91-1.48M61.98,35.26c-.44-.32-.98-.5-1.53-.52M60.46,34.74c-.59-.02-1.18-.02-1.77,0M51.2,40.78c3.63-.04,7.22-.73,10.61-2.03M61.81,38.76c.76-.36,1.2-1.18,1.08-2.02M62.83,36.46c-2.3-.11-4.6-.16-6.91-.15-2.68,0-5.37,0-8.05,0-2.72,0-5.44-.1-8.15-.29M62.89,37.25c-2.32-.11-4.64-.16-6.96-.16-2.69,0-5.37,0-8.06,0-2.76,0-5.53-.1-8.29-.29"></path><path class="cls-3" d="M34.36,40.78h-1.83v17.3h1.83M39.63,63.98v1.83h23.11v-1.83M36.76,71.3v1.83h28.84v-1.83M69.27,58.09h1.83v-26.15h-1.83"></path><text class="cls-4" transform="translate(75.51 49.18) rotate(-90)"><tspan x="0" y="0">100</tspan></text><text class="cls-4" transform="translate(48.4 70.23)"><tspan x="0" y="0">90</tspan></text><text class="cls-4" transform="translate(47.19 77.52)"><tspan x="0" y="0">110</tspan></text><text class="cls-4" transform="translate(31.68 52.21) rotate(-90)"><tspan x="0" y="0">66</tspan></text></g></svg> 