<?xml version="1.0" encoding="UTF-8"?> <svg xmlns="http://www.w3.org/2000/svg" id="katman_2" data-name="katman 2" viewBox="0 0 103.66 109.39"><defs><style> .cls-1, .cls-2, .cls-3 { fill: none; } .cls-4 { fill: #1d1d1b; font-family: ArialMT, Arial; font-size: 5px; } .cls-2 { stroke-width: .15px; } .cls-2, .cls-3 { stroke: #1d1d1b; stroke-linecap: round; stroke-linejoin: round; } .cls-3 { stroke-width: .25px; } </style></defs><g id="katman_1" data-name="katman 1"><rect class="cls-1" width="103.66" height="109.39"></rect><path class="cls-2" d="M69.46,59.7h-23.07M45.34,59.73c.44,0,.79-.35.79-.79M44.29,59.73h1.05M46.13,58.94v-22.83M43.51,58.94v-21.81M43.51,58.94c0,.43.35.79.79.79M46.13,36.11h22.85M46.36,33.49h22.38M69.77,34.51c0-.56-.46-1.02-1.02-1.02M46.36,33.49c-.56,0-1.02.46-1.02,1.02M46.13,59.44v-.5M46.13,59.44c0,.14.12.26.26.26M44.53,36.11c-.57,0-1.02.46-1.02,1.02M46.13,36.9c0-.43-.35-.79-.79-.79M45.34,35.32c0,.43.35.79.79.79M45.34,36.11h-.81M45.34,35.32v-.81M68.98,36.11c.43,0,.79-.35.79-.79M69.77,35.32v-.81M69.72,59.44v-23.85M51.62,38.53c-.21.82.21,1.68.99,2.02M52.44,36.83c-.51.42-.81,1.04-.82,1.7M53.96,36.31c-.55.01-1.08.19-1.52.52M55.95,36.29c-.66,0-1.32,0-1.99.02M55.95,36.29c2.48,0,4.97-.01,7.45-.05M65.39,36.3c-.66-.08-1.33-.1-1.99-.07M69.6,38.53c-.09-.66-.42-1.26-.91-1.7M68.69,36.83c-.44-.32-.98-.5-1.53-.52M67.16,36.31c-.59-.02-1.18-.02-1.77,0M68.51,40.98c.7-.62,1.09-1.51,1.08-2.45M69.54,38.25c-1.34-.11-2.69-.16-4.03-.15-1.43,0-2.87,0-4.3,0-3.16,0-6.31-.1-9.46-.29M69.6,39.04c-1.36-.11-2.72-.16-4.09-.16-1.43,0-2.87,0-4.3,0-3.2,0-6.4-.1-9.6-.29M69.46,59.7c.15,0,.26-.12.26-.26M48.56,59.52c.82.21,1.68-.21,2.01-.99M46.86,58.7c.42.51,1.04.81,1.7.82M46.34,56.78c.01.67.19,1.33.52,1.92M46.33,55.45c0,.44,0,.89.02,1.33M46.33,55.45c0-2.83-.01-5.66-.05-8.49M46.34,40.79c-.08,2.06-.1,4.12-.07,6.18M48.56,36.58c-.66.09-1.26.42-1.7.91M46.86,37.49c-.32.44-.5.98-.52,1.52M46.34,39.02c-.02.59-.02,1.18,0,1.77M50.58,37.67c-.36-.76-1.18-1.2-2.01-1.08M56.9,41.94c3.89.63,7.88.3,11.61-.97M52.61,40.54c1.39.57,2.83,1.04,4.29,1.4M51.77,52.57c.09-5-.3-9.99-1.19-14.91M48.28,36.64c-.11,2.3-.16,4.6-.15,6.91M48.13,49.16c0-1.87,0-3.74,0-5.61M47.84,59.39c.19-3.41.28-6.82.29-10.24M49.07,36.58c-.11,2.32-.16,4.64-.16,6.96M48.92,49.16c0-1.87,0-3.74,0-5.61M48.62,59.53c.19-3.46.29-6.91.3-10.38M50.58,58.53c.75-1.9,1.15-3.91,1.19-5.95"></path><path class="cls-3" d="M46.13,63.36v1.84h23.59v-1.84M43.51,69.72v1.83h26.21v-1.83M40.09,59.7h-1.84v-26.21h1.84"></path><text class="cls-4" transform="translate(37.41 50.76) rotate(-90)"><tspan x="0" y="0">100</tspan></text><text class="cls-4" transform="translate(55.14 69.6)"><tspan x="0" y="0">90</tspan></text><text class="cls-4" transform="translate(52.44 75.97)"><tspan x="0" y="0">100</tspan></text></g></svg> 