<?xml version="1.0" encoding="UTF-8"?> <svg xmlns="http://www.w3.org/2000/svg" id="katman_2" data-name="katman 2" viewBox="0 0 103.66 109.39"><defs><style> .cls-1, .cls-2, .cls-3 { fill: none; } .cls-4 { fill: #1d1d1b; font-family: ArialMT, Arial; font-size: 5px; } .cls-2 { stroke-width: .15px; } .cls-2, .cls-3 { stroke: #1d1d1b; stroke-linecap: round; stroke-linejoin: round; } .cls-3 { stroke-width: .25px; } </style></defs><g id="katman_1" data-name="katman 1"><rect class="cls-1" width="103.66" height="109.39"></rect><path class="cls-2" d="M79.88,61.78h-23.07M57.33,38.19h22.02M57.57,35.57h21.55M80.14,36.59c0-.56-.46-1.02-1.02-1.02M57.57,35.57c-.56,0-1.02.46-1.02,1.02M56.55,61.52v-24.12M56.55,61.52c0,.15.12.26.26.26M56.55,37.4c0,.43.35.79.79.79M56.55,37.4v-.81M79.35,38.19c.43,0,.79-.35.79-.79M80.14,37.4v-.81M79.88,61.78c.15,0,.26-.12.26-.26M57.73,42.45c3.42,1.2,6.99,1.88,10.61,2.03M56.74,40.44c-.21.82.21,1.68.99,2.02M57.56,38.74c-.51.42-.81,1.04-.82,1.7M59.09,38.36c-.53.01-1.05.14-1.53.38M61.07,38.4c-.66-.02-1.33-.03-1.99-.04M61.07,38.4c2.05.03,4.09.02,6.14-.03M75.83,38.43c-2.87-.08-5.75-.1-8.62-.07M80.03,40.44c-.1-.59-.42-1.13-.91-1.48M79.13,38.95c-.44-.32-.98-.5-1.53-.52M77.6,38.44c-.59-.02-1.18-.02-1.77,0M68.34,44.48c3.63-.04,7.22-.73,10.61-2.03M78.95,42.45c.76-.36,1.2-1.18,1.08-2.02M79.98,40.16c-2.3-.11-4.6-.16-6.91-.15-2.68,0-5.37,0-8.05,0-2.72,0-5.44-.1-8.15-.29M80.04,40.95c-2.32-.11-4.64-.16-6.96-.16-2.69,0-5.37,0-8.06,0-2.76,0-5.53-.1-8.29-.29M56.29,61.78h-23.07M33.74,38.19h22.02M33.98,35.57h21.55M56.55,36.59c0-.56-.46-1.02-1.02-1.02M33.98,35.57c-.56,0-1.02.46-1.02,1.02M32.95,61.52v-24.12M32.95,61.52c0,.15.12.26.26.26M32.95,37.4c0,.43.35.79.79.79M32.95,37.4v-.81M55.76,38.19c.44,0,.79-.35.79-.79M56.55,37.4v-.81M56.29,61.78c.14,0,.26-.12.26-.26M34.14,42.45c3.42,1.2,6.99,1.88,10.61,2.03M33.15,40.44c-.21.82.21,1.68.99,2.02M33.97,38.74c-.51.42-.81,1.04-.82,1.7M35.49,38.36c-.53.01-1.05.14-1.53.38M37.48,38.4c-.66-.02-1.32-.03-1.99-.04M37.48,38.4c2.05.03,4.09.02,6.14-.03M52.24,38.43c-2.87-.08-5.75-.1-8.62-.07M56.44,40.44c-.1-.59-.42-1.13-.91-1.48M55.53,38.95c-.44-.32-.98-.5-1.53-.52M54.01,38.44c-.59-.02-1.18-.02-1.77,0M44.75,44.48c3.63-.04,7.22-.73,10.61-2.03M55.36,42.45c.76-.36,1.2-1.18,1.08-2.02M56.39,40.16c-2.3-.11-4.6-.16-6.91-.15-2.68,0-5.37,0-8.05,0-2.72,0-5.44-.1-8.15-.29M56.45,40.95c-2.32-.11-4.64-.16-6.96-.16-2.69,0-5.37,0-8.06,0-2.77,0-5.53-.1-8.29-.29M80.14,61.52v-24.12"></path><text class="cls-4" transform="translate(52.38 73.89)"><tspan x="0" y="0">180</tspan></text><text class="cls-4" transform="translate(26.99 52.85) rotate(-90)"><tspan x="0" y="0">100</tspan></text><path class="cls-3" d="M29.67,35.57h-1.84v26.21h1.84M32.96,67.58v1.84h47.18v-1.84"></path></g></svg> 