<?xml version="1.0" encoding="UTF-8"?> <svg xmlns="http://www.w3.org/2000/svg" id="katman_2" data-name="katman 2" viewBox="0 0 103.66 109.39"><defs><style> .cls-1, .cls-2, .cls-3 { fill: none; } .cls-4 { fill: #1d1d1b; font-family: ArialMT, Arial; font-size: 5px; } .cls-2 { stroke-width: .15px; } .cls-2, .cls-3 { stroke: #1d1d1b; stroke-linecap: round; stroke-linejoin: round; } .cls-3 { stroke-width: .25px; } </style></defs><g id="katman_1" data-name="katman 1"><rect class="cls-1" width="103.66" height="109.39"></rect><path class="cls-2" d="M70.59,63.27h-23.07M47.26,62.82v-23.51M48.04,39.68h22.02M48.28,37.06h21.55M70.85,38.08c0-.56-.46-1.02-1.02-1.02M48.28,37.06c-.56,0-1.02.46-1.02,1.02M47.26,63.01v-.2M47.26,63.01c0,.14.12.26.26.26M47.26,38.9c0,.43.35.79.79.79M47.26,38.9v-.81M70.06,39.68c.43,0,.79-.35.79-.79M70.85,38.9v-.81M70.85,63.01v-23.8M70.59,63.27c.15,0,.26-.12.26-.26M48.45,43.95c3.41,1.2,6.99,1.88,10.61,2.03M47.46,41.93c-.21.82.21,1.68.99,2.02M48.27,40.23c-.51.42-.81,1.04-.82,1.7M49.8,39.85c-.53.01-1.05.14-1.53.38M51.78,39.89c-.66-.02-1.32-.03-1.99-.04M51.78,39.89c2.05.03,4.09.02,6.14-.03M66.54,39.92c-2.87-.08-5.75-.1-8.62-.07M70.75,41.93c-.1-.59-.42-1.13-.91-1.48M69.84,40.45c-.44-.32-.98-.5-1.53-.52M68.31,39.93c-.59-.02-1.18-.02-1.77,0M59.05,45.97c3.63-.04,7.22-.73,10.61-2.03M69.66,43.95c.76-.36,1.2-1.18,1.08-2.02M70.69,41.65c-2.3-.11-4.6-.16-6.91-.15-2.68,0-5.37,0-8.05,0-2.72,0-5.44-.1-8.15-.29M70.75,42.44c-2.32-.11-4.64-.16-6.96-.16-2.69,0-5.37,0-8.06,0-2.76,0-5.53-.1-8.29-.29"></path><path class="cls-3" d="M38.96,63.27h-1.83v-26.21h1.83M45.27,63.27h-1.83v-17.3h1.83M47.26,66.16v1.84h23.59v-1.84"></path><text class="cls-4" transform="translate(56.27 72.39)"><tspan x="0" y="0">90</tspan></text><text class="cls-4" transform="translate(42.58 57.4) rotate(-90)"><tspan x="0" y="0">66</tspan></text><text class="cls-4" transform="translate(36.28 54.34) rotate(-90)"><tspan x="0" y="0">100</tspan></text></g></svg> 