<?xml version="1.0" encoding="UTF-8"?> <svg xmlns="http://www.w3.org/2000/svg" xmlns:xlink="http://www.w3.org/1999/xlink" id="katman_2" data-name="katman 2" viewBox="0 0 103.6 109.33"><defs><style> .cls-1, .cls-2, .cls-3, .cls-4 { fill: none; } .cls-2 { stroke: #818081; } .cls-2, .cls-3 { stroke-width: .09px; } .cls-2, .cls-3, .cls-4 { stroke-linecap: round; stroke-linejoin: round; } .cls-3, .cls-4 { stroke: #1d1d1b; } .cls-5 { clip-path: url(#clippath-1); } .cls-6 { clip-path: url(#clippath-3); } .cls-7 { clip-path: url(#clippath-4); } .cls-8 { clip-path: url(#clippath-2); } .cls-9 { clip-path: url(#clippath-5); } .cls-10 { fill: #1d1d1b; font-family: ArialMT, Arial; font-size: 3px; } .cls-4 { stroke-width: .15px; } .cls-11 { clip-path: url(#clippath); } </style><clipPath id="clippath"><rect class="cls-1" x="5.41" y="42.27" width="92.78" height="24.78"></rect></clipPath><clipPath id="clippath-1"><rect class="cls-1" x="5.41" y="42.27" width="92.78" height="24.78"></rect></clipPath><clipPath id="clippath-2"><rect class="cls-1" x="5.41" y="42.27" width="92.78" height="24.78"></rect></clipPath><clipPath id="clippath-3"><rect class="cls-1" x="5.41" y="42.27" width="92.78" height="24.78"></rect></clipPath><clipPath id="clippath-4"><rect class="cls-1" x="5.41" y="42.27" width="92.78" height="24.78"></rect></clipPath><clipPath id="clippath-5"><rect class="cls-1" x="5.41" y="42.27" width="92.78" height="24.78"></rect></clipPath></defs><g class="cls-11"><path class="cls-3" d="M15.37,59.22h-.01M15.36,59.22h-.15M32.76,59.22h-.16M13.37,56.06c0,.18.15.33.33.33M13.37,56.06v-1.23M13.7,56.39h20.57M34.27,56.39c.18,0,.33-.15.33-.33M34.6,54.82c0-.18-.15-.33-.33-.33M34.6,56.06v-1.23M13.53,54.49c-.09,0-.16.07-.16.16M34.6,54.66c0-.09-.07-.16-.16-.16M13.7,54.49c-.18,0-.33.15-.33.33M13.7,54.49h20.57M34.76,42.84c0-.27-.22-.49-.49-.49M34.43,59.22c.18,0,.33-.15.33-.33M34.76,58.89v-16.05M13.7,42.35c-.27,0-.49.22-.49.49M34.27,42.35H13.7M13.2,42.84v16.05M13.2,58.89c0,.18.15.33.33.33M13.53,59.22h20.9M32.87,59.15h-.38M15.48,59.15h-.02M15.45,59.15h-.36M15.19,59.2s0,.02.02.02M15.37,59.22s.02,0,.02-.02M15.39,59.2v-.05M15.19,59.15v.05M32.58,59.2s0,.02.02.02M32.76,59.22s.02,0,.02-.02M32.78,59.2v-.05M32.58,59.15v.05M32.47,59.13s0,.02.02.02M32.87,59.15s.02,0,.02-.02M32.88,59.13v-2.75M32.47,56.39v2.75M15.49,59.13v-2.75M15.08,56.39v2.75M15.08,59.13s0,.02.02.02M15.48,59.15s.02,0,.02-.02M18.14,45.29h-4.85M33.86,51.22h.9M13.2,51.22h.9M13.2,48.26h21.56M30.1,45.29h4.58M25.46,45.29h4.64M27.41,45.29h-1.95M22.77,45.29h4.64M18.14,45.29h4.64"></path></g><path class="cls-2" d="M15.37,59.2h.01M32.58,59.2h.2"></path><g class="cls-5"><rect class="cls-3" x="14.11" y="49.56" width="19.75" height="4.94" rx=".49" ry=".49"></rect></g><path class="cls-4" d="M13.2,64.15h21.56M34.76,62.51v1.65M13.2,62.51v1.65"></path><g class="cls-8"><text class="cls-10" transform="translate(21.48 67.02)"><tspan x="0" y="0">131</tspan></text><path class="cls-4" d="M8.1,42.35v16.87M9.75,59.22h-1.65M9.75,42.35h-1.65"></path><text class="cls-10" transform="translate(7.57 53.28) rotate(-90)"><tspan x="0" y="0">103</tspan></text><path class="cls-3" d="M74.22,59.1v.04M74.14,59.1v.04M74.14,59.14h.08M74.22,56.39v2.71M74.14,56.39v2.71M74.36,59.14v-.04M74.44,59.14v-.04M74.44,59.14h-.08M74.44,59.1v-2.71M74.36,59.1v-2.71M89.49,59.22h-.16M59.26,59.22h-.01M59.25,59.22h-.15M57.54,56.39h16.75M57.54,54.49h16.75M91.32,54.66c0-.09-.07-.16-.16-.16M74.29,54.49h16.87M74.29,56.39h16.7M74.29,56.39v-1.89M90.99,56.39c.18,0,.33-.15.33-.33M91.32,56.06v-1.4M55.81,42.35c-.18,0-.33.15-.33.33M55.48,42.68v16.21M57.54,42.84v16.04M57.54,42.84c0-.27-.22-.49-.49-.49M55.81,42.35h1.24M55.48,58.89c0,.18.15.33.33.33M57.21,59.22c.18,0,.33-.15.33-.33M55.81,59.22h1.4M59.36,59.15h-.02M59.34,59.15h-.35M89.59,59.15h-.38M89.3,59.2s0,.02.02.02M89.49,59.22s.02,0,.02-.02M89.5,59.2v-.05M89.3,59.15v.05M59.08,59.2s0,.02.02.02M59.26,59.22s.02,0,.02-.02M59.27,59.2v-.05M59.08,59.15v.05M59.38,59.13v-2.75M58.97,56.39v2.75M58.97,59.13s0,.02.02.02M59.36,59.15s.02,0,.02-.02M89.61,59.13v-2.75M89.2,56.39v2.75M89.2,59.13s0,.02.02.02M89.59,59.15s.02,0,.02-.02"></path></g><path class="cls-2" d="M89.3,59.2h.2M59.08,59.2h.19M59.26,59.2h.01M58.97,59.13h.38M59.35,59.13h.03M89.2,59.13h.41"></path><g class="cls-6"><rect class="cls-3" x="57.54" y="49.56" width="32.91" height="4.94" rx=".49" ry=".49"></rect></g><path class="cls-4" d="M55.48,64.15h35.84M91.32,62.51v1.65M55.48,62.51v1.65"></path><g class="cls-7"><text class="cls-10" transform="translate(70.9 67.02)"><tspan x="0" y="0">218</tspan></text><path class="cls-4" d="M50.55,42.35v16.87M52.19,59.22h-1.65M52.19,42.35h-1.65"></path></g><text class="cls-10" transform="translate(50.01 53.28) rotate(-90)"><tspan x="0" y="0">103</tspan></text><path class="cls-4" d="M95.51,54.49v4.72M93.86,59.22h1.65M93.86,54.49h1.65"></path><g class="cls-9"><text class="cls-10" transform="translate(98.15 58.52) rotate(-90)"><tspan x="0" y="0">29</tspan></text></g><path class="cls-3" d="M29.5,42.35v7.21M24.07,42.35v7.21M18.64,42.35v7.21"></path></svg> 