<?xml version="1.0" encoding="UTF-8"?> <svg xmlns="http://www.w3.org/2000/svg" id="katman_2" data-name="katman 2" viewBox="0 0 103.6 109.33"><defs><style> .cls-1 { stroke: #818081; } .cls-1, .cls-2 { stroke-width: .09px; } .cls-1, .cls-2, .cls-3 { fill: none; stroke-linecap: round; stroke-linejoin: round; } .cls-2, .cls-3 { stroke: #1d1d1b; } .cls-4 { fill: #1d1d1b; font-family: ArialMT, Arial; font-size: 3px; } .cls-3 { stroke-width: .15px; } </style></defs><path class="cls-2" d="M14.8,58.71h-.01M14.79,58.71h-.15M35.48,58.71h-.16M12.8,55.55c0,.18.15.33.33.33M12.8,55.55v-1.23M13.13,55.88h23.86M36.99,55.88c.18,0,.33-.15.33-.33M37.32,54.32c0-.18-.15-.33-.33-.33M37.32,55.55v-1.23M12.96,53.99c-.09,0-.16.07-.16.16M37.32,54.15c0-.09-.07-.16-.16-.16M13.13,53.99c-.18,0-.33.15-.33.33M13.13,53.99h23.86M37.48,42.34c0-.27-.22-.49-.49-.49M37.15,58.71c.18,0,.33-.15.33-.33M37.48,58.38v-16.05M13.13,41.84c-.27,0-.49.22-.49.49M36.99,41.84H13.13M12.63,42.34v16.05M12.63,58.38c0,.18.15.33.33.33M12.96,58.71h24.19M35.59,58.64h-.38M14.91,58.64h-.02M14.88,58.64h-.36M14.62,58.69s0,.02.02.02M14.8,58.71s.02,0,.02-.02M14.81,58.69v-.05M14.62,58.64v.05M35.3,58.69s0,.02.02.02M35.48,58.71s.02,0,.02-.02M35.5,58.69v-.05M35.3,58.64v.05M35.19,58.63s0,.02.02.02M35.59,58.64s.02,0,.02-.02M35.61,58.63v-2.75M35.19,55.88v2.75M14.92,58.63v-2.75M14.51,55.88v2.75M14.51,58.63s0,.02.02.02M14.91,58.64s.02,0,.02-.02M17.57,44.79h-4.85M36.58,50.71h.9M12.63,50.71h.9M12.63,47.75h24.85M32.82,44.79h4.58M24.89,44.79h7.93M30.13,44.79h-5.24M22.2,44.79h7.93M17.57,44.79h4.63"></path><path class="cls-1" d="M14.8,58.69h.01M35.3,58.69h.2"></path><path class="cls-2" d="M14.03,49.05h22.05c.27,0,.49.22.49.49v3.95c0,.27-.22.49-.49.49H14.03c-.27,0-.49-.22-.49-.49v-3.95c0-.27.22-.49.49-.49Z"></path><path class="cls-3" d="M12.63,63.65h24.85M37.48,62v1.65M12.63,62v1.65"></path><text class="cls-4" transform="translate(22.56 66.43)"><tspan x="0" y="0">151</tspan></text><path class="cls-3" d="M8.15,41.84v16.87M9.8,58.71h-1.65M9.8,41.84h-1.65"></path><text class="cls-4" transform="translate(7.62 52.78) rotate(-90)"><tspan x="0" y="0">10</tspan></text><text class="cls-4" transform="translate(7.62 49.44) rotate(-90)"><tspan x="0" y="0">3</tspan></text><path class="cls-2" d="M73.65,58.59v.04M73.56,58.59v.04M73.56,58.63h.08M73.65,55.88v2.71M73.56,55.88v2.71M73.79,58.63v-.04M73.87,58.63v-.04M73.87,58.63h-.08M73.87,58.59v-2.71M73.79,58.59v-2.71M88.91,58.71h-.17M58.69,58.71h-.01M58.68,58.71h-.15M56.97,55.88h16.75M56.97,53.99h16.75M90.75,54.15c0-.09-.07-.16-.17-.16M73.72,53.99h16.87M73.72,55.88h16.7M73.72,55.88v-1.89M90.42,55.88c.18,0,.33-.15.33-.33M90.75,55.55v-1.4M55.24,41.84c-.18,0-.33.15-.33.33M54.91,42.17v16.21M56.97,42.34v16.04M56.97,42.34c0-.27-.22-.49-.49-.49M55.24,41.84h1.23M54.91,58.38c0,.18.15.33.33.33M56.64,58.71c.18,0,.33-.15.33-.33M55.24,58.71h1.4M58.79,58.64h-.02M58.77,58.64h-.35M89.02,58.64h-.38M88.73,58.69s0,.02.02.02M88.91,58.71s.02,0,.02-.02M88.93,58.69v-.05M88.73,58.64v.05M58.51,58.69s0,.02.02.02M58.69,58.71s.02,0,.02-.02M58.7,58.69v-.05M58.51,58.64v.05M58.81,58.63v-2.75M58.4,55.88v2.75M58.4,58.63s0,.02.02.02M58.79,58.64s.02,0,.02-.02M89.04,58.63v-2.75M88.63,55.88v2.75M88.63,58.63s0,.02.02.02M89.02,58.64s.02,0,.02-.02M32.73,41.84v7.21M17.55,41.84v7.21"></path><path class="cls-1" d="M88.73,58.69h.2M58.51,58.69h.19M58.69,58.69h.01M58.4,58.63h.38M58.78,58.63h.03M88.63,58.63h.41"></path><path class="cls-2" d="M57.46,49.05h31.93c.27,0,.49.22.49.49v3.95c0,.27-.22.49-.49.49h-31.93c-.27,0-.49-.22-.49-.49v-3.95c0-.27.22-.49.49-.49Z"></path><path class="cls-3" d="M54.91,63.65h35.84M90.75,62v1.65M54.91,62v1.65"></path><text class="cls-4" transform="translate(70.33 66.51)"><tspan x="0" y="0">218</tspan></text><path class="cls-3" d="M49.98,41.84v16.87M51.62,58.71h-1.65M51.62,41.84h-1.65"></path><text class="cls-4" transform="translate(49.44 52.78) rotate(-90)"><tspan x="0" y="0">10</tspan></text><text class="cls-4" transform="translate(49.44 49.44) rotate(-90)"><tspan x="0" y="0">3</tspan></text><path class="cls-3" d="M94.94,53.99v4.72M93.29,58.71h1.65M93.29,53.99h1.65"></path><text class="cls-4" transform="translate(97.58 58.02) rotate(-90)"><tspan x="0" y="0">29</tspan></text><path class="cls-2" d="M27.88,41.84v7.21M22.57,41.84v7.21"></path></svg> 